<?xml version="1.0" encoding="UTF-8"?>
<svg width="700pt" height="700pt" version="1.1" viewBox="0 0 700 700" xmlns="http://www.w3.org/2000/svg">
 <path d="m513.33 256.67h-163.33c-8.3359 0-16.039 4.4453-20.207 11.664s-4.168 16.117 0 23.336 11.871 11.664 20.207 11.664h163.33c8.3359 0 16.039-4.4453 20.207-11.664 4.168-7.2188 4.168-16.117 0-23.336-4.168-7.2188-11.871-11.664-20.207-11.664zm0 140h-326.66c-8.3359 0-16.039 4.4453-20.207 11.664-4.168 7.2188-4.168 16.117 0 23.336 4.168 7.2188 11.871 11.664 20.207 11.664h326.66c8.3359 0 16.039-4.4453 20.207-11.664 4.168-7.2188 4.168-16.117 0-23.336-4.168-7.2188-11.871-11.664-20.207-11.664zm-326.66-233.34h326.66c8.3359 0 16.039-4.4453 20.207-11.664 4.168-7.2188 4.168-16.117 0-23.336-4.168-7.2188-11.871-11.664-20.207-11.664h-326.66c-8.3359 0-16.039 4.4453-20.207 11.664-4.168 7.2188-4.168 16.117 0 23.336 4.168 7.2188 11.871 11.664 20.207 11.664z"/>
</svg>
